<svg width="35" height="35" viewBox="0 0 35 35" fill="none" xmlns="http://www.w3.org/2000/svg">
<path d="M20.7706 17.4346C20.7706 19.2776 19.2766 20.7716 17.4336 20.7716C15.5907 20.7716 14.0967 19.2776 14.0967 17.4346C14.0967 15.5916 15.5907 14.0977 17.4336 14.0977C19.2766 14.0977 20.7706 15.5916 20.7706 17.4346Z" fill="#FCC311"/>
<path d="M25.2378 11.5295C25.0774 11.0948 24.8215 10.7014 24.489 10.3784C24.166 10.0459 23.7729 9.79 23.3379 9.62958C22.9852 9.49258 22.4553 9.32951 21.4792 9.28509C20.4234 9.23694 20.1068 9.22656 17.4338 9.22656C14.7606 9.22656 14.444 9.23667 13.3885 9.28482C12.4124 9.32951 11.8823 9.49258 11.5298 9.62958C11.0948 9.79 10.7014 10.0459 10.3787 10.3784C10.0462 10.7014 9.79026 11.0946 9.62958 11.5295C9.49258 11.8823 9.32951 12.4124 9.28509 13.3885C9.23694 14.444 9.22656 14.7606 9.22656 17.4338C9.22656 20.1068 9.23694 20.4234 9.28509 21.4792C9.32951 22.4553 9.49258 22.9852 9.62958 23.3379C9.79026 23.7729 10.0459 24.166 10.3784 24.489C10.7014 24.8215 11.0946 25.0774 11.5295 25.2378C11.8823 25.3751 12.4124 25.5382 13.3885 25.5826C14.444 25.6308 14.7603 25.6409 17.4336 25.6409C20.1071 25.6409 20.4237 25.6308 21.479 25.5826C22.455 25.5382 22.9852 25.3751 23.3379 25.2378C24.211 24.9011 24.9011 24.211 25.2378 23.3379C25.3748 22.9852 25.5379 22.4553 25.5826 21.4792C25.6308 20.4234 25.6409 20.1068 25.6409 17.4338C25.6409 14.7606 25.6308 14.444 25.5826 13.3885C25.5382 12.4124 25.3751 11.8823 25.2378 11.5295ZM17.4338 22.5742C14.5946 22.5742 12.293 20.2728 12.293 17.4336C12.293 14.5943 14.5946 12.293 17.4338 12.293C20.2728 12.293 22.5744 14.5943 22.5744 17.4336C22.5744 20.2728 20.2728 22.5742 17.4338 22.5742ZM22.7777 13.2911C22.1142 13.2911 21.5763 12.7532 21.5763 12.0897C21.5763 11.4263 22.1142 10.8884 22.7777 10.8884C23.4411 10.8884 23.979 11.4263 23.979 12.0897C23.9788 12.7532 23.4411 13.2911 22.7777 13.2911Z" fill="#FCC311"/>
<path d="M17.434 0C7.80692 0 0 7.80692 0 17.434C0 27.061 7.80692 34.8679 17.434 34.8679C27.061 34.8679 34.8679 27.061 34.8679 17.434C34.8679 7.80692 27.061 0 17.434 0ZM27.3845 21.5613C27.3361 22.627 27.1666 23.3545 26.9192 23.9914C26.3991 25.3361 25.3361 26.3991 23.9914 26.9192C23.3548 27.1666 22.627 27.3358 21.5615 27.3845C20.494 27.4332 20.153 27.4449 17.4342 27.4449C14.7152 27.4449 14.3745 27.4332 13.3066 27.3845C12.2412 27.3358 11.5134 27.1666 10.8768 26.9192C10.2086 26.6678 9.60363 26.2738 9.10351 25.7644C8.59435 25.2646 8.20037 24.6594 7.94898 23.9914C7.70158 23.3548 7.53212 22.627 7.48371 21.5615C7.43449 20.4937 7.42305 20.1527 7.42305 17.434C7.42305 14.7152 7.43449 14.3742 7.48344 13.3066C7.53186 12.241 7.70105 11.5134 7.94845 10.8765C8.19984 10.2086 8.59408 9.60336 9.10351 9.10351C9.60336 8.59408 10.2086 8.2001 10.8765 7.94871C11.5134 7.70131 12.241 7.53212 13.3066 7.48344C14.3742 7.43476 14.7152 7.42305 17.434 7.42305C20.1527 7.42305 20.4937 7.43476 21.5613 7.48371C22.627 7.53212 23.3545 7.70131 23.9914 7.94845C24.6594 8.19984 25.2646 8.59408 25.7647 9.10351C26.2738 9.60363 26.6681 10.2086 26.9192 10.8765C27.1669 11.5134 27.3361 12.241 27.3847 13.3066C27.4334 14.3742 27.4449 14.7152 27.4449 17.434C27.4449 20.1527 27.4334 20.4937 27.3845 21.5613Z" fill="#FCC311"/>
</svg>
