<svg xmlns="http://www.w3.org/2000/svg" xmlns:xlink="http://www.w3.org/1999/xlink" viewBox="0 0 717.8 228.18"><defs><style>.cls-1,.cls-2{fill-rule:evenodd;}.cls-1{fill:url(#Degradado_sin_nombre_91);}.cls-2{fill:url(#Degradado_sin_nombre_91-2);}</style><linearGradient id="Degradado_sin_nombre_91" x1="832.84" y1="-130.14" x2="-89.65" y2="619.39" gradientUnits="userSpaceOnUse"><stop offset="0" stop-color="#997a2e"/><stop offset="0.11" stop-color="#b99c5a"/><stop offset="0.21" stop-color="#6d5920"/><stop offset="0.34" stop-color="#b99c5a"/><stop offset="0.45" stop-color="#594a1a"/><stop offset="0.62" stop-color="#b99c5a"/><stop offset="0.75" stop-color="#997a2e"/><stop offset="0.88" stop-color="#b99c5a"/><stop offset="1" stop-color="#e0e0e0"/></linearGradient><linearGradient id="Degradado_sin_nombre_91-2" x1="682.45" y1="-315.24" x2="-240.05" y2="434.29" xlink:href="#Degradado_sin_nombre_91"/></defs><title>Asset 1</title><g id="Layer_2" data-name="Layer 2"><g id="Capa_1" data-name="Capa 1"><path class="cls-1" d="M367.6,192.59c7-171.15,198.84-131,350.2-192.59C666.09,173.28,499.85,49.57,409.11,123.1c78.26-38.62,196.17,4.84,280.83-39.24a156.5,156.5,0,0,1-8,16.86c-69.62,122.74-191.82-8.25-277.32,37.5C473.36,120.3,525.52,155,606.71,165.9c-94.49,56.27-114-17.61-205.77-16.14,41.5,6.6,92.35,31.73,134.58,51-5.12,2-9.89,3.64-14.18,5-44.47,13.94-77.37-36-122.54-49.25,13.37,8.91,46.32,29.08,82.92,59.57-45.18,10-47.6-16.73-87.88-48.42,0,0,22.57,30.52,52.23,55.47-26.24,4.68-37.68-7.65-57-48.11,0,0,5.39,21.43,28.16,53-19.83,3.31-39.7-44.77-39.83-44.64Z"/><path class="cls-2" d="M350.2,192.59C343.23,21.44,151.36,61.55,0,0,51.71,173.28,218,49.57,308.69,123.1c-78.26-38.62-196.17,4.84-280.83-39.24a156.5,156.5,0,0,0,8,16.86c69.62,122.74,191.82-8.25,277.33,37.5C244.44,120.3,192.28,155,111.09,165.9c94.49,56.27,114-17.61,205.77-16.14-41.49,6.6-92.35,31.73-134.58,51,5.13,2,9.89,3.64,14.18,5,44.47,13.94,77.37-36,122.54-49.25-13.38,8.91-46.32,29.08-82.92,59.57,45.18,10,47.6-16.73,87.88-48.42,0,0-22.57,30.52-52.23,55.47,26.24,4.68,37.68-7.65,57-48.11,0,0-5.39,21.43-28.16,53,19.83,3.31,39.71-44.77,39.83-44.64Z"/></g></g></svg>