<svg width="276" height="67" viewBox="0 0 276 67" fill="none" xmlns="http://www.w3.org/2000/svg">
<path d="M15.3093 24.7786H15.2011L7.68169 0.815079H0L10.9816 34.94H19.4206L30.6727 0.815079H22.991L15.3093 24.7786Z" fill="url(#paint0_linear)"/>
<path d="M38.9494 10.2157H32.1874V34.94H38.9494V10.2157Z" fill="url(#paint1_linear)"/>
<path d="M38.9494 0.815079H32.1874V6.412H38.9494V0.815079Z" fill="url(#paint2_linear)"/>
<path d="M60.9126 13.5304H60.8044C59.9929 12.1176 58.9651 11.0852 57.7209 10.4874C56.4767 9.88969 55.0702 9.56366 53.4473 9.56366C51.7162 9.56366 50.2015 9.88969 48.9032 10.5418C47.6049 11.1938 46.4688 12.1176 45.6033 13.2587C44.7377 14.3998 44.0345 15.704 43.6017 17.1711C43.1689 18.6383 42.8985 20.2141 42.8985 21.7899C42.8985 23.4744 43.1149 25.1046 43.4935 26.5718C43.8722 28.0933 44.5214 29.3974 45.3869 30.5385C46.2524 31.6796 47.3344 32.5491 48.6868 33.2011C50.0392 33.8532 55.2865 34.2879 53.4473 34.1792C37.6511 33.4185 56.3685 33.8532 57.7209 33.2555C59.0733 32.6577 60.1011 31.6796 60.8585 30.3755H60.9667V33.6358C61.0208 35.3747 60.588 36.8418 59.7225 37.983C58.8569 39.1241 57.4504 39.7218 55.557 39.7218C54.3669 39.7218 53.285 39.4501 52.3653 38.9611C51.4457 38.472 50.8506 37.6026 50.5261 36.2985H43.764C43.8722 37.7113 44.2509 38.9067 44.9541 39.8848C45.6574 40.8629 46.4688 41.7324 47.4967 42.3301C48.5245 42.9822 49.6605 43.4169 50.9047 43.7429C52.149 44.0689 53.3932 44.1776 54.5833 44.1776C57.3963 44.1776 59.6684 43.7972 61.3453 43.0365C63.0223 42.2757 64.3207 41.352 65.1862 40.2652C66.0517 39.1784 66.6468 37.983 66.9173 36.6788C67.1878 35.429 67.296 34.2879 67.296 33.3098V10.2157H60.8585V13.5304H60.9126ZM60.588 24.8329C60.3716 25.648 59.9929 26.3544 59.5061 27.0065C59.0192 27.6585 58.4241 28.1476 57.7209 28.528C57.0176 28.9083 56.1521 29.1257 55.1784 29.1257C54.1505 29.1257 53.285 28.9083 52.5817 28.4736C51.8785 28.0389 51.3375 27.4412 50.9047 26.7348C50.472 26.0284 50.2015 25.2676 49.9851 24.3439C49.8228 23.4744 49.7146 22.605 49.7146 21.6813C49.7146 20.7575 49.8228 19.8881 50.0392 19.0186C50.2556 18.1492 50.5802 17.4428 51.0129 16.7907C51.4457 16.1387 52.0408 15.5953 52.744 15.2149C53.4473 14.8345 54.2587 14.6172 55.1784 14.6172C56.3144 14.6172 57.234 14.8345 57.9373 15.2149C58.6405 15.6496 59.2356 16.193 59.7225 16.8994C60.1552 17.6058 60.4798 18.4209 60.6962 19.2903C60.9126 20.2141 60.9667 21.1379 60.9667 22.1703C60.9126 23.1484 60.8044 24.0178 60.588 24.8329Z" fill="url(#paint3_linear)"/>
<path d="M92.2344 13.0957C91.0984 11.9546 89.8001 11.0852 88.2313 10.4874C86.6625 9.88969 84.9314 9.56366 82.9839 9.56366C81.0364 9.56366 79.3054 9.88969 77.7366 10.4874C76.1678 11.0852 74.8695 12.0089 73.7334 13.0957C72.5974 14.2368 71.786 15.5953 71.1909 17.2255C70.5958 18.8556 70.2713 20.6488 70.2713 22.605C70.2713 24.5612 70.5958 26.3544 71.1909 27.9302C71.786 29.5061 72.6515 30.8646 73.7334 32.0057C74.8695 33.1468 76.1678 34.0162 77.7366 34.6139C79.3054 35.2117 81.0364 35.5377 82.9839 35.5377C84.9314 35.5377 86.6625 35.2117 88.2313 34.6139C89.8001 34.0162 91.1525 33.1468 92.2344 32.0057C93.3704 30.8646 94.1819 29.5061 94.7769 27.9302C95.372 26.3544 95.6966 24.5612 95.6966 22.605C95.6966 20.6488 95.372 18.8556 94.7769 17.2255C94.1819 15.5953 93.3704 14.2368 92.2344 13.0957ZM88.664 25.485C88.4477 26.4088 88.1231 27.2782 87.6903 28.0389C87.2034 28.7997 86.6084 29.3974 85.851 29.8321C85.0937 30.2668 84.1199 30.4842 82.9839 30.4842C81.8479 30.4842 80.8742 30.2668 80.1168 29.8321C79.3595 29.3974 78.7644 28.7997 78.2775 28.0389C77.8448 27.2782 77.4661 26.4631 77.3038 25.485C77.0874 24.5612 77.0333 23.5831 77.0333 22.605C77.0333 21.6269 77.1415 20.6488 77.3038 19.6707C77.5202 18.6926 77.8448 17.8775 78.2775 17.1168C78.7103 16.4104 79.3595 15.8126 80.1168 15.3236C80.8742 14.8889 81.8479 14.6172 82.9839 14.6172C84.1199 14.6172 85.0937 14.8345 85.851 15.3236C86.6084 15.8126 87.2575 16.356 87.6903 17.1168C88.1231 17.8232 88.5018 18.6926 88.664 19.6707C88.8804 20.6488 88.9345 21.5726 88.9345 22.605C88.9345 23.6375 88.8804 24.5612 88.664 25.485Z" fill="url(#paint4_linear)"/>
<path d="M110.789 9.94403C109.978 10.2157 109.275 10.5418 108.572 11.0308C107.868 11.5199 107.273 12.0633 106.732 12.7153C106.191 13.3674 105.759 14.0738 105.434 14.8345H105.326V10.2701H98.8883V34.9943H105.65V23.8005C105.65 22.6594 105.759 21.6269 105.975 20.7032C106.191 19.7251 106.57 18.91 107.111 18.2036C107.652 17.4972 108.301 16.8994 109.167 16.5191C110.032 16.0843 111.06 15.9213 112.304 15.9213C112.737 15.9213 113.17 15.9213 113.603 15.9757C114.035 16.03 114.414 16.0843 114.739 16.1387V9.78102C114.198 9.618 113.711 9.56366 113.278 9.56366C112.412 9.56366 111.601 9.67234 110.789 9.94403Z" fill="url(#paint5_linear)"/>
<path d="M136.648 14.0738C135.674 12.7153 134.376 11.6286 132.807 10.8135C131.238 9.99838 129.453 9.61801 127.343 9.61801C125.45 9.61801 123.773 9.94405 122.204 10.5961C120.689 11.2482 119.337 12.1719 118.255 13.3674C117.119 14.5085 116.307 15.9213 115.712 17.4972C115.117 19.073 114.793 20.8118 114.793 22.6594C114.793 24.5612 115.063 26.3001 115.658 27.9303C116.253 29.5061 117.065 30.9189 118.147 32.06C119.229 33.2011 120.527 34.0706 122.096 34.7226C123.664 35.3204 125.396 35.6464 127.343 35.6464C130.156 35.6464 132.536 34.9943 134.484 33.7445C136.431 32.4947 137.892 30.3755 138.866 27.3869H132.915C132.699 28.1476 132.103 28.854 131.13 29.5604C130.156 30.2668 128.966 30.5929 127.613 30.5929C125.72 30.5929 124.259 30.1038 123.232 29.1257C122.204 28.1476 121.663 26.5718 121.555 24.3439H139.298C139.406 22.442 139.244 20.5945 138.811 18.8556C138.379 17.0081 137.675 15.4323 136.648 14.0738ZM121.555 19.9424C121.609 19.4534 121.663 18.91 121.879 18.3123C122.042 17.7145 122.366 17.1168 122.799 16.5734C123.232 16.03 123.773 15.5953 124.53 15.2149C125.233 14.8346 126.153 14.6715 127.235 14.6715C128.858 14.6715 130.102 15.1063 130.913 16.03C131.725 16.8994 132.266 18.2036 132.59 19.9424H121.555Z" fill="url(#paint6_linear)"/>
<path d="M177.599 17.1711C176.463 16.4647 175.381 15.9213 174.245 15.5953C173.109 15.2693 172.243 15.0519 171.594 14.8889C169.484 14.3455 167.753 13.9108 166.455 13.5304C165.156 13.2044 164.129 12.824 163.371 12.498C162.614 12.1719 162.127 11.7916 161.857 11.3569C161.586 10.9221 161.478 10.3788 161.478 9.72668C161.478 9.02028 161.64 8.36821 161.965 7.9335C162.289 7.44444 162.668 7.06407 163.155 6.73804C163.642 6.412 164.183 6.19465 164.778 6.08597C165.373 5.97729 165.968 5.86861 166.563 5.86861C167.483 5.86861 168.348 5.92295 169.105 6.08597C169.863 6.24899 170.566 6.52068 171.161 6.90105C171.756 7.28143 172.243 7.82482 172.622 8.47689C173 9.12895 173.217 9.99838 173.271 11.0308H180.52C180.52 9.07461 180.141 7.39011 179.384 5.97729C178.626 4.56448 177.653 3.4777 176.354 2.55393C175.11 1.68451 173.65 1.03244 172.027 0.597729C170.404 0.217356 168.673 0 166.887 0C165.373 0 163.858 0.217356 162.343 0.597729C160.829 1.03244 159.476 1.63017 158.232 2.49959C157.042 3.36902 156.068 4.4558 155.311 5.7056C154.554 7.00973 154.175 8.53122 154.175 10.2701C154.175 11.8459 154.445 13.15 155.04 14.2368C155.635 15.3236 156.393 16.2474 157.367 17.0081C158.34 17.7145 159.422 18.3122 160.612 18.8013C161.802 19.2903 163.047 19.6707 164.345 19.9968C165.589 20.3228 166.779 20.6488 168.024 20.9749C169.214 21.2466 170.296 21.5726 171.269 21.953C172.243 22.3333 173 22.8224 173.595 23.3658C174.191 23.9635 174.461 24.6699 174.461 25.5937C174.461 26.4631 174.245 27.1695 173.812 27.7129C173.379 28.2563 172.838 28.691 172.135 29.017C171.486 29.3431 170.782 29.5604 169.971 29.6691C169.214 29.7778 168.51 29.8321 167.807 29.8321C166.833 29.8321 165.86 29.7234 164.94 29.4517C164.02 29.2344 163.209 28.854 162.56 28.365C161.857 27.8759 161.316 27.2238 160.937 26.4088C160.504 25.5937 160.342 24.6156 160.342 23.4745H153.093C153.039 25.5937 153.417 27.3869 154.229 28.9084C155.04 30.4298 156.068 31.6796 157.421 32.6577C158.773 33.6358 160.342 34.3966 162.073 34.8313C163.858 35.266 165.643 35.5377 167.537 35.5377C169.863 35.5377 171.864 35.266 173.65 34.7226C175.435 34.1792 176.895 33.4185 178.085 32.4404C179.276 31.4623 180.195 30.3212 180.79 28.9627C181.385 27.6042 181.71 26.1914 181.71 24.6156C181.71 22.7137 181.331 21.1379 180.52 19.8881C179.654 18.8556 178.735 17.8775 177.599 17.1711Z" fill="url(#paint7_linear)"/>
<path d="M207.135 13.5847C206.216 12.3893 205.08 11.4112 203.673 10.6504C202.267 9.94403 200.59 9.56366 198.696 9.56366C197.181 9.56366 195.775 9.88969 194.531 10.4874C193.287 11.0852 192.205 12.0633 191.393 13.4217H191.285V10.2701H184.848V43.6342H191.61V31.897H191.718C192.529 33.0924 193.611 34.0162 194.855 34.6683C196.154 35.266 197.56 35.592 199.075 35.592C200.86 35.592 202.483 35.266 203.835 34.5596C205.188 33.8532 206.324 32.9294 207.189 31.734C208.109 30.5385 208.758 29.18 209.191 27.6586C209.624 26.1371 209.84 24.5612 209.84 22.8767C209.84 21.1379 209.624 19.4534 209.191 17.8232C208.758 16.193 208.055 14.7802 207.135 13.5847ZM202.808 25.5937C202.591 26.5718 202.267 27.3869 201.834 28.0933C201.401 28.7997 200.752 29.3974 200.049 29.8321C199.291 30.2668 198.372 30.4842 197.29 30.4842C196.208 30.4842 195.288 30.2668 194.531 29.8321C193.773 29.3974 193.178 28.7997 192.691 28.0933C192.259 27.3869 191.88 26.5174 191.718 25.5937C191.501 24.6156 191.393 23.6918 191.393 22.6594C191.393 21.6269 191.501 20.6488 191.664 19.6707C191.88 18.6926 192.205 17.8775 192.637 17.1168C193.07 16.4104 193.719 15.8126 194.423 15.3236C195.18 14.8889 196.1 14.6172 197.181 14.6172C198.263 14.6172 199.183 14.8345 199.94 15.3236C200.698 15.7583 201.293 16.4104 201.78 17.1168C202.267 17.8775 202.591 18.6926 202.808 19.6707C203.024 20.6488 203.132 21.5726 203.132 22.605C203.078 23.6375 203.024 24.6156 202.808 25.5937Z" fill="url(#paint8_linear)"/>
<path d="M234.508 13.0957C233.372 11.9546 232.074 11.0852 230.505 10.4874C228.936 9.88969 227.205 9.56366 225.258 9.56366C223.31 9.56366 221.579 9.88969 220.01 10.4874C218.441 11.0852 217.143 12.0089 216.007 13.0957C214.871 14.2368 214.06 15.5953 213.465 17.2255C212.869 18.8556 212.545 20.6488 212.545 22.605C212.545 24.5612 212.869 26.3544 213.465 27.9302C214.06 29.5061 214.925 30.8646 216.007 32.0057C217.143 33.1468 218.441 34.0162 220.01 34.6139C221.579 35.2117 223.31 35.5377 225.258 35.5377C227.205 35.5377 228.936 35.2117 230.505 34.6139C232.074 34.0162 233.426 33.1468 234.508 32.0057C235.644 30.8646 236.456 29.5061 237.051 27.9302C237.646 26.3544 237.97 24.5612 237.97 22.605C237.97 20.6488 237.646 18.8556 237.051 17.2255C236.51 15.5953 235.644 14.2368 234.508 13.0957ZM230.938 25.485C230.721 26.4088 230.397 27.2782 229.964 28.0389C229.477 28.7997 228.882 29.3974 228.125 29.8321C227.367 30.2668 226.394 30.4842 225.258 30.4842C224.122 30.4842 223.148 30.2668 222.39 29.8321C221.633 29.3974 221.038 28.7997 220.551 28.0389C220.118 27.2782 219.74 26.4631 219.577 25.485C219.361 24.5612 219.307 23.5831 219.307 22.605C219.307 21.6269 219.415 20.6488 219.577 19.6707C219.794 18.6926 220.118 17.8775 220.551 17.1168C220.984 16.4104 221.633 15.8126 222.39 15.3236C223.148 14.8345 224.122 14.6172 225.258 14.6172C226.394 14.6172 227.367 14.8345 228.125 15.3236C228.882 15.7583 229.531 16.356 229.964 17.1168C230.397 17.8232 230.775 18.6926 230.938 19.6707C231.154 20.6488 231.208 21.5726 231.208 22.605C231.208 23.6375 231.154 24.5612 230.938 25.485Z" fill="url(#paint9_linear)"/>
<path d="M253.117 9.94403C252.306 10.2157 251.603 10.5418 250.899 11.0308C250.196 11.5199 249.601 12.0633 249.06 12.7153C248.519 13.3674 248.086 14.0738 247.762 14.8345H247.653V10.2701H241.216V34.9943H247.978V23.8005C247.978 22.6594 248.086 21.6269 248.303 20.7032C248.519 19.7251 248.898 18.91 249.439 18.2036C249.98 17.4972 250.629 16.8994 251.494 16.5191C252.36 16.0843 253.388 15.9213 254.632 15.9213C255.065 15.9213 255.497 15.9213 255.93 15.9757C256.363 16.03 256.742 16.0843 257.066 16.1387V9.78102C256.525 9.618 256.038 9.56366 255.606 9.56366C254.74 9.56366 253.875 9.67234 253.117 9.94403Z" fill="url(#paint10_linear)"/>
<path d="M273.241 14.7802V10.2157H268.318V2.82562H261.556V10.2157H257.445V14.7802H261.556V29.3431C261.556 30.5929 261.773 31.571 262.151 32.3317C262.53 33.0925 263.125 33.6902 263.828 34.1249C264.532 34.5596 265.343 34.8313 266.317 34.94C267.236 35.103 268.264 35.1573 269.292 35.1573C269.941 35.1573 270.644 35.1573 271.348 35.103C272.051 35.0487 272.7 34.9943 273.241 34.8856V29.6148C272.916 29.6691 272.592 29.7234 272.267 29.7778C271.943 29.8321 271.564 29.8321 271.185 29.8321C270.049 29.8321 269.292 29.6148 268.913 29.2344C268.535 28.854 268.318 28.0933 268.318 26.9521V14.7802H273.241Z" fill="url(#paint11_linear)"/>
<defs>
<linearGradient id="paint0_linear" x1="15.3427" y1="-49.3792" x2="15.3427" y2="173.723" gradientUnits="userSpaceOnUse">
<stop stop-color="#997A2E"/>
<stop offset="0.1078" stop-color="#B99C5A"/>
<stop offset="0.205" stop-color="#6D5920"/>
<stop offset="0.3368" stop-color="#B99C5A"/>
<stop offset="0.4502" stop-color="#594A1A"/>
<stop offset="0.6203" stop-color="#B99C5A"/>
<stop offset="0.7537" stop-color="#997A2E"/>
<stop offset="0.8819" stop-color="#B99C5A"/>
<stop offset="0.997" stop-color="#E0E0E0"/>
</linearGradient>
<linearGradient id="paint1_linear" x1="35.5853" y1="-49.3792" x2="35.5853" y2="173.723" gradientUnits="userSpaceOnUse">
<stop stop-color="#997A2E"/>
<stop offset="0.1078" stop-color="#B99C5A"/>
<stop offset="0.3368" stop-color="#B99C5A"/>
<stop offset="0.4502" stop-color="#594A1A"/>
<stop offset="0.6203" stop-color="#B99C5A"/>
<stop offset="0.7537" stop-color="#997A2E"/>
<stop offset="0.8819" stop-color="#B99C5A"/>
<stop offset="0.997" stop-color="#E0E0E0"/>
</linearGradient>
<linearGradient id="paint2_linear" x1="35.5853" y1="-49.3792" x2="35.5853" y2="173.723" gradientUnits="userSpaceOnUse">
<stop stop-color="#997A2E"/>
<stop offset="0.1078" stop-color="#B99C5A"/>
<stop offset="0.205" stop-color="#6D5920"/>
<stop offset="0.3368" stop-color="#B99C5A"/>
<stop offset="0.4502" stop-color="#594A1A"/>
<stop offset="0.6203" stop-color="#B99C5A"/>
<stop offset="0.7537" stop-color="#997A2E"/>
<stop offset="0.8819" stop-color="#B99C5A"/>
<stop offset="0.997" stop-color="#E0E0E0"/>
</linearGradient>
<linearGradient id="paint3_linear" x1="55.1475" y1="-49.3792" x2="55.1475" y2="173.723" gradientUnits="userSpaceOnUse">
<stop stop-color="#997A2E"/>
<stop offset="0.1078" stop-color="#B99C5A"/>
<stop offset="0.205" stop-color="#6D5920"/>
<stop offset="0.3368" stop-color="#B99C5A"/>
<stop offset="0.4502" stop-color="#594A1A"/>
<stop offset="0.6203" stop-color="#B99C5A"/>
<stop offset="0.7537" stop-color="#997A2E"/>
<stop offset="0.8819" stop-color="#B99C5A"/>
<stop offset="0.997" stop-color="#E0E0E0"/>
</linearGradient>
<linearGradient id="paint4_linear" x1="82.9826" y1="-49.3792" x2="82.9826" y2="173.723" gradientUnits="userSpaceOnUse">
<stop stop-color="#997A2E"/>
<stop offset="0.1078" stop-color="#B99C5A"/>
<stop offset="0.205" stop-color="#6D5920"/>
<stop offset="0.3368" stop-color="#B99C5A"/>
<stop offset="0.4502" stop-color="#594A1A"/>
<stop offset="0.6203" stop-color="#B99C5A"/>
<stop offset="0.7537" stop-color="#997A2E"/>
<stop offset="0.8819" stop-color="#B99C5A"/>
<stop offset="0.997" stop-color="#E0E0E0"/>
</linearGradient>
<linearGradient id="paint5_linear" x1="106.835" y1="-49.3792" x2="106.835" y2="173.723" gradientUnits="userSpaceOnUse">
<stop stop-color="#997A2E"/>
<stop offset="0.1078" stop-color="#B99C5A"/>
<stop offset="0.205" stop-color="#6D5920"/>
<stop offset="0.3368" stop-color="#B99C5A"/>
<stop offset="0.4502" stop-color="#594A1A"/>
<stop offset="0.6203" stop-color="#B99C5A"/>
<stop offset="0.7537" stop-color="#997A2E"/>
<stop offset="0.8819" stop-color="#B99C5A"/>
<stop offset="0.997" stop-color="#E0E0E0"/>
</linearGradient>
<linearGradient id="paint6_linear" x1="127.06" y1="-49.3791" x2="127.06" y2="173.723" gradientUnits="userSpaceOnUse">
<stop stop-color="#997A2E"/>
<stop offset="0.1078" stop-color="#B99C5A"/>
<stop offset="0.205" stop-color="#6D5920"/>
<stop offset="0.3368" stop-color="#B99C5A"/>
<stop offset="0.4502" stop-color="#594A1A"/>
<stop offset="0.6203" stop-color="#B99C5A"/>
<stop offset="0.7537" stop-color="#997A2E"/>
<stop offset="0.8819" stop-color="#B99C5A"/>
<stop offset="0.997" stop-color="#E0E0E0"/>
</linearGradient>
<linearGradient id="paint7_linear" x1="167.405" y1="-49.3792" x2="167.405" y2="173.723" gradientUnits="userSpaceOnUse">
<stop stop-color="#997A2E"/>
<stop offset="0.1078" stop-color="#B99C5A"/>
<stop offset="0.205" stop-color="#6D5920"/>
<stop offset="0.3368" stop-color="#B99C5A"/>
<stop offset="0.4502" stop-color="#594A1A"/>
<stop offset="0.6203" stop-color="#B99C5A"/>
<stop offset="0.7537" stop-color="#997A2E"/>
<stop offset="0.8819" stop-color="#B99C5A"/>
<stop offset="0.997" stop-color="#E0E0E0"/>
</linearGradient>
<linearGradient id="paint8_linear" x1="197.338" y1="-49.3792" x2="197.338" y2="173.723" gradientUnits="userSpaceOnUse">
<stop stop-color="#997A2E"/>
<stop offset="0.1078" stop-color="#B99C5A"/>
<stop offset="0.205" stop-color="#6D5920"/>
<stop offset="0.3368" stop-color="#B99C5A"/>
<stop offset="0.4502" stop-color="#594A1A"/>
<stop offset="0.6203" stop-color="#B99C5A"/>
<stop offset="0.7537" stop-color="#997A2E"/>
<stop offset="0.8819" stop-color="#B99C5A"/>
<stop offset="0.997" stop-color="#E0E0E0"/>
</linearGradient>
<linearGradient id="paint9_linear" x1="225.274" y1="-49.3792" x2="225.274" y2="173.723" gradientUnits="userSpaceOnUse">
<stop stop-color="#997A2E"/>
<stop offset="0.1078" stop-color="#B99C5A"/>
<stop offset="0.205" stop-color="#6D5920"/>
<stop offset="0.3368" stop-color="#B99C5A"/>
<stop offset="0.4502" stop-color="#594A1A"/>
<stop offset="0.6203" stop-color="#B99C5A"/>
<stop offset="0.7537" stop-color="#997A2E"/>
<stop offset="0.8819" stop-color="#B99C5A"/>
<stop offset="0.997" stop-color="#E0E0E0"/>
</linearGradient>
<linearGradient id="paint10_linear" x1="249.127" y1="-49.3792" x2="249.127" y2="173.723" gradientUnits="userSpaceOnUse">
<stop stop-color="#997A2E"/>
<stop offset="0.1078" stop-color="#B99C5A"/>
<stop offset="0.205" stop-color="#6D5920"/>
<stop offset="0.3368" stop-color="#B99C5A"/>
<stop offset="0.4502" stop-color="#594A1A"/>
<stop offset="0.6203" stop-color="#B99C5A"/>
<stop offset="0.7537" stop-color="#997A2E"/>
<stop offset="0.8819" stop-color="#B99C5A"/>
<stop offset="0.997" stop-color="#E0E0E0"/>
</linearGradient>
<linearGradient id="paint11_linear" x1="265.326" y1="-49.3792" x2="265.326" y2="173.723" gradientUnits="userSpaceOnUse">
<stop stop-color="#997A2E"/>
<stop offset="0.1078" stop-color="#B99C5A"/>
<stop offset="0.205" stop-color="#6D5920"/>
<stop offset="0.3368" stop-color="#B99C5A"/>
<stop offset="0.4502" stop-color="#594A1A"/>
<stop offset="0.6203" stop-color="#B99C5A"/>
<stop offset="0.7537" stop-color="#997A2E"/>
<stop offset="0.8819" stop-color="#B99C5A"/>
<stop offset="0.997" stop-color="#E0E0E0"/>
</linearGradient>
</defs>
</svg>
