<svg width="34" height="34" viewBox="0 0 34 34" fill="none" xmlns="http://www.w3.org/2000/svg">
<path d="M23.8592 10.9277H10.1416L17.0004 16.8068L23.8592 10.9277Z" fill="#FCC311"/>
<path d="M17.0003 18.2156C16.8553 18.2156 16.7151 18.1637 16.6051 18.0692L9.10742 11.6426V23.0728H24.8931V11.6426L17.3955 18.0692C17.2855 18.1637 17.1452 18.2156 17.0003 18.2156Z" fill="#FCC311"/>
<path d="M17 0C7.61122 0 0 7.61122 0 17C0 26.3888 7.61122 34 17 34C26.3888 34 34 26.3888 34 17C33.9893 7.61567 26.3843 0.0106724 17 0ZM26.1071 23.6786C26.1071 24.0139 25.8353 24.2857 25.5 24.2857H8.5C8.16471 24.2857 7.89286 24.0139 7.89286 23.6786V10.3214C7.89286 9.98614 8.16471 9.71429 8.5 9.71429H25.5C25.8353 9.71429 26.1071 9.98614 26.1071 10.3214V23.6786Z" fill="#FCC311"/>
</svg>
