<svg width="35" height="35" viewBox="0 0 35 35" fill="none" xmlns="http://www.w3.org/2000/svg">
<path d="M17.5 0C7.83649 0 0 7.83649 0 17.5C0 27.1635 7.83649 35 17.5 35C27.1635 35 35 27.1635 35 17.5C35 7.83649 27.1635 0 17.5 0ZM17.8709 27.689C17.8706 27.689 17.8712 27.689 17.8709 27.689H17.8666C16.1136 27.6882 14.391 27.2487 12.8612 26.4145L7.30885 27.8706L8.79486 22.4446C7.87815 20.8568 7.3959 19.0554 7.3967 17.21C7.3991 11.4368 12.0977 6.74007 17.8709 6.74007C20.6726 6.74114 23.3025 7.83169 25.2799 9.81064C27.2575 11.7899 28.3459 14.4206 28.3448 17.2183C28.3424 22.9917 23.6433 27.689 17.8709 27.689Z" fill="#FCC311"/>
<path d="M17.8745 8.50781C13.0725 8.50781 9.16718 12.4115 9.16504 17.21C9.16451 18.8544 9.62486 20.4557 10.4962 21.8414L10.7031 22.1706L9.82353 25.3822L13.1184 24.5181L13.4364 24.7066C14.7729 25.4997 16.3051 25.9192 17.8672 25.9197H17.8707C22.669 25.9197 26.5742 22.0157 26.5764 17.217C26.5772 14.8914 25.6725 12.705 24.0289 11.0601C22.3854 9.41518 20.1995 8.50861 17.8745 8.50781ZM22.995 20.9516C22.7768 21.5626 21.7314 22.1204 21.2286 22.1957C20.7776 22.263 20.2072 22.291 19.5802 22.0921C19.2 21.9714 18.7127 21.8104 18.0881 21.541C15.4629 20.4077 13.7483 17.7652 13.6175 17.5905C13.4866 17.4159 12.5488 16.1718 12.5488 14.8839C12.5488 13.5963 13.2249 12.9632 13.4647 12.7015C13.7048 12.4395 13.9884 12.3741 14.1628 12.3741C14.3371 12.3741 14.5118 12.3757 14.6642 12.3832C14.825 12.3912 15.0407 12.3221 15.253 12.8323C15.4712 13.3563 15.9946 14.6439 16.06 14.7747C16.1254 14.9058 16.1689 15.0586 16.0819 15.2332C15.9946 15.4078 15.7046 15.7846 15.4277 16.128C15.3115 16.2719 15.1601 16.4001 15.3128 16.6621C15.4653 16.9238 15.9908 17.7807 16.7687 18.4744C17.7684 19.3657 18.6117 19.6418 18.8734 19.773C19.1348 19.9038 19.2876 19.8819 19.4403 19.7075C19.5928 19.5329 20.0945 18.9436 20.2689 18.6816C20.4433 18.4197 20.6179 18.4634 20.8577 18.5508C21.0978 18.6378 22.3843 19.2709 22.646 19.4018C22.9077 19.5329 23.082 19.5983 23.1475 19.7075C23.2132 19.8167 23.2132 20.3404 22.995 20.9516Z" fill="#FCC311"/>
</svg>
